<svg xmlns="http://www.w3.org/2000/svg" width="583.04004" height="431.02025" viewBox="0 0 583.04004 431.02025" xmlns:xlink="http://www.w3.org/1999/xlink"><g><path d="M291.52026,308.9511c-64.43262,0-125.03809-9.5918-170.65234-27.00781-46.22217-17.64844-71.67773-41.35547-71.67773-66.75488s25.45557-49.10547,71.67773-66.75391c45.61426-17.41602,106.21973-27.00781,170.65234-27.00781s125.0376,9.5918,170.65234,27.00781c46.22168,17.64844,71.67725,41.35547,71.67725,66.75391s-25.45557,49.10645-71.67725,66.75488c-45.61475,17.41602-106.21973,27.00781-170.65234,27.00781Zm0-183.52441c-63.95703,0-124.05566,9.49805-169.22559,26.74463-44.56299,17.01514-69.10449,39.39502-69.10449,63.01709s24.5415,46.00293,69.10449,63.01758c45.16992,17.24707,105.26855,26.74512,169.22559,26.74512s124.05566-9.49805,169.2251-26.74512c44.56299-17.01465,69.10449-39.39453,69.10449-63.01758s-24.5415-46.00195-69.10449-63.01709c-45.16992-17.24658-105.26855-26.74463-169.2251-26.74463Z" fill="#e0138c"/><path d="M391.64233,430.37786c-20.02393,0-44.98486-11.57324-72.60693-34.02246-37.89062-30.79492-76.5-78.48535-108.71582-134.28516-32.21631-55.7998-54.2124-113.08203-61.93652-161.29346-7.82715-48.854-.02393-82.75244,21.97217-95.45166,21.99609-12.69873,55.25537-2.50732,93.64941,28.69727,37.89062,30.79541,76.5,78.48535,108.71582,134.28516,32.21631,55.7998,54.2124,113.08203,61.93652,161.29395,7.82715,48.85352,.02393,82.75195-21.97217,95.45215-6.17139,3.5625-13.23291,5.32422-21.04248,5.32422ZM191.50464,3.96917c-7.13916,0-13.56201,1.59375-19.14941,4.81982-20.45801,11.81152-27.56885,44.25488-20.02246,91.35498,7.64893,47.7417,29.47266,104.5376,61.45068,159.92627,31.97852,55.3877,70.25342,102.68555,107.77441,133.18066,37.01709,30.08594,68.67041,40.15137,89.12695,28.33789,20.45801-11.81152,27.56885-44.25488,20.02246-91.35449-7.64893-47.74219-29.47266-104.53809-61.45068-159.92676-31.97852-55.3877-70.25342-102.68555-107.7749-133.18066C234.57593,15.25872,210.50366,3.96917,191.50464,3.96917Z" fill="#e0138c"/><path d="M191.39722,430.37786c-7.81152,0-14.86914-1.76074-21.04199-5.32422-21.99609-12.7002-29.79932-46.59863-21.97217-95.45215,7.72412-48.21191,29.72021-105.49414,61.93652-161.29395,32.21582-55.7998,70.8252-103.48975,108.71582-134.28516C357.42993,2.81731,390.6897-7.37507,412.68481,5.32512c21.99609,12.69922,29.79932,46.59766,21.97217,95.45166-7.72412,48.21143-29.72021,105.49365-61.93652,161.29346-32.21582,55.7998-70.8252,103.49023-108.71582,134.28516-27.61963,22.44824-52.58398,34.02246-72.60742,34.02246ZM391.5354,3.96917c-18.99951,0-43.06885,11.28809-69.97754,33.15771-37.521,30.49512-75.7959,77.79297-107.77441,133.18066-31.97803,55.38867-53.80176,112.18457-61.45068,159.92676-7.54639,47.09961-.43555,79.54297,20.02246,91.35449,5.58643,3.22559,12.01221,4.81934,19.14941,4.82031,18.99951,.00195,43.06885-11.28809,69.97705-33.1582,37.52148-30.49512,75.79639-77.79297,107.7749-133.18066,31.97803-55.38867,53.80176-112.18457,61.45068-159.92627,7.54639-47.1001,.43555-79.54346-20.02246-91.35498-5.58643-3.2251-12.01221-4.81982-19.14941-4.81982Z" fill="#e0138c"/><circle cx="291.52004" cy="215.18889" r="44.78878" fill="#e0138c"/></g><g><g><path id="b-251" d="M243.46957,228.73951c4.16581,1.09909,8.10965-.15946,8.80868-2.81073,.69903-2.65126-2.11125-5.69069-6.2787-6.78961-1.6587-.46181-3.40388-.51968-5.08952-.16875l-17.70953-4.43397-1.90359,8.35491,17.66056,3.48408c1.29365,1.13707,2.84086,1.94771,4.5121,2.36407Z" fill="#ffb6b6"/><path d="M146.13321,188.06167s-3.59702,6.90329,1.38855,10.30819,46.50224,19.1858,46.50224,19.1858l41.23021,8.97281,1.48803-10.02002-37.53799-11.99262-31.30368-21.05293-21.76737,4.59877Z" fill="#e8e8e8"/></g><g><polygon points="195.229 410.86965 202.22161 407.72429 191.21187 374.81567 180.89222 379.45676 195.229 410.86965" fill="#ffb6b6"/><path d="M225.85447,413.94428h0c.55892,1.16809,.18308,2.51167-.83949,3.00096l-13.72475,6.56716s-3.94843-4.78291-10.57313-4.48447l3.33572,7.9475-7.08012,3.38777-5.11698-12.89726s-5.09051-5.77423-2.79113-11.07118c2.29943-5.29697-.65903-3.29717-.65903-3.29717l-2.15062-8.46877,11.30082-3.86117,5.88359,12.09411,10.95399,9.55755,9.41555,.11799c.83803,.01049,1.64185,.56344,2.04548,1.407l.0001-.00002Z" fill="#e8e8e8"/></g><g><polygon points="56.86064 393.87943 63.10936 398.32278 85.93805 372.1877 76.71694 365.62982 56.86064 393.87943" fill="#ffb6b6"/><path d="M69.68929,421.85797h0c-.72531,1.07273-2.07457,1.42764-3.01366,.79269l-12.60429-8.52223s2.13082-5.8246-1.47554-11.38966l-5.17102,6.89567-6.50211-4.39632,8.54133-10.93474s2.40882-7.31113,8.1415-8.00484c5.73272-.69368,2.51172-2.23537,2.51172-2.23537l6.21986-6.13665,9.04418,7.79872-7.46083,11.19019-2.70909,14.28277,4.65786,8.18357c.41458,.72837,.34382,1.70145-.17998,2.47614l.00007,.00007Z" fill="#e8e8e8"/></g><rect x="134.65437" y="143.3215" width="32.83387" height="45.09185" fill="#e8e8e8"/><path d="M160.11457,169.0948l-17.82774-5.30014-3.37281,9.15478-.48183,55.89236s25.53703-5.78197,31.319,3.85465l1.92732-17.34591s6.2638-8.67295,.96366-19.75506c-5.30014-11.08211-10.29676-16.07873-10.29676-16.07873l-4.15816-2.23084,1.92732-8.19112Z" fill="#e0138c"/><path d="M139.63676,220.40977l-2.40915,24.57337,31.80083,6.74563s-2.40915-21.20055,.48183-26.01886l-29.8735-5.30014Z" fill="#ffb6b6"/><path d="M170.95576,251.24693s-20.23689-14.93675-37.5828-9.15478c0,0-20.47781,12.76851-9.87753,34.93273l-16.14133,38.30554-36.1373,50.59222,10.11844,12.04577,47.70124-49.62856,15.41858-21.20055,39.02829,82.87488,12.04577-5.78197-14.93675-63.60165-8.91387-44.08751-.72275-25.29611Z" fill="#e8e8e8"/><polygon points="123.73635 279.67495 99.64482 271.96565 122.77269 207.88217 120.36354 173.67219 140.76819 167.91669 152.16436 218.48244 123.73635 279.67495" fill="#e8e8e8"/><path d="M161.01373,180.84843l-3.64218-3.64218,1.62441-3.35736s10.51431,10.9054,12.44163,13.79639,19.92495,75.50218,19.92495,75.50218l-27.15241,11.22735,5.30014-57.01347,1.96242-12.82373c.29018-1.89622-.03439-3.83553-.92617-5.53393l-9.53279-18.15524Z" fill="#e8e8e8"/><circle cx="152.15161" cy="148.56012" r="15.97725" fill="#ffb6b6"/><path d="M162.08868,142.02914c-5.48186-3.65576-15.29302,10.98544-18.29302,1.98544-.46778-1.40333-1.56818,4.80515-1.97081,6.97741-.51132,2.7587,.78247,4.96207,0,5.45565-.88427,.55775-3.04973-1.93237-3.5072-1.55876-.44711,.36514,.99011,3.25903,3.5072,6.62471,3.3409,4.46725,5.43481,5.55454,8.18347,8.57316,2.559,2.81036,7.29378,8.01022,6.62471,12.47005-1.25845,8.38835-21.74082,14.87117-28.05761,8.57316-1.51242-1.50795-1.80826-4.92268-2.33813-11.69067-.78856-10.07203-.19318-17.63024,0-19.87414,.8043-9.34345,1.2065-14.0152,3.11751-17.9257,1.22035-2.49721,5.33002-10.90677,14.4185-13.63912,9.76297-2.93508,21.38224,1.85012,24.55041,8.96285,.91543,2.05514,.02569,1.83604,1.16907,8.57316,1.35316,7.97331,2.22911,12.75775,5.84534,15.58756,3.32213,2.59972,5.88591,1.14657,7.0144,3.11751,2.92707,5.1122-10.65637,21.28895-16.36694,19.09476-3.44075-1.32205-3.74491-9.2064-3.5072-12.85974,.5119-7.86751,4.41031-9.53735,4.28658-16.75663-.03273-1.91006-.14861-8.67125-4.67627-11.69067Z" fill="#e8e8e8"/><g><path id="c-252" d="M92.48172,275.54219c-.67837,4.25462,.96703,8.05336,3.67477,8.48463,2.70774,.43127,5.4519-2.66798,6.12994-6.92421,.29417-1.69647,.17779-3.43873-.33941-5.081l2.6466-18.0633-8.50305-1.0613-1.70633,17.91989c-1.00245,1.40055-1.65484,3.02086-1.90253,4.72528Z" fill="#ffb6b6"/><path d="M123.25452,174.63585s-7.22746-2.89098-10.11844,2.40915-14.45492,48.18307-14.45492,48.18307l-4.81831,41.91927,10.11844,.48183,8.19112-38.54646,17.82774-33.24632-6.74563-21.20055Z" fill="#e8e8e8"/></g></g></svg>