<?xml version="1.0" encoding="UTF-8"?>
<svg width="350" height="100" version="1.1" viewBox="0 0 350 100" xmlns="http://www.w3.org/2000/svg">
 <g font-weight="bold" letter-spacing="0px" text-anchor="middle" word-spacing="0px">
  <g transform="matrix(1.5881 0 0 1.5881 -.0072664 5.7099)" font-family="Ubuntu">
   <g fill="#e0138c" stroke="#fff" aria-label="{}">
    <path d="m25.717 50.94q-4.3 0-6.6-0.7t-3.2-2.2-0.9-3.9v-7.7q0-2.35-1.6-3.35t-4.65-1v-5.85q3.05 0 4.65-1t1.6-3.35v-7.75q0-2.4 0.9-3.9 0.9-1.5 3.2-2.2t6.6-0.7v5.5q-1.95 0.05-3.1 0.7t-1.15 2.75v7.3q0 4.55-5.7 5.4v0.3q5.7 0.85 5.7 5.4v7.3q0 2.1 1.15 2.75t3.1 0.7z"/>
    <path d="m29.717 50.94v-5.5q1.95-0.05 3.1-0.7t1.15-2.75v-7.3q0-4.55 5.7-5.4v-0.3q-5.7-0.85-5.7-5.4v-7.3q0-2.1-1.15-2.75t-3.1-0.7v-5.5q4.3 0 6.6 0.7t3.2 2.2q0.9 1.5 0.9 3.9v7.75q0 2.35 1.6 3.35t4.65 1v5.85q-3.05 0-4.65 1t-1.6 3.35v7.7q0 2.4-0.9 3.9t-3.2 2.2-6.6 0.7z"/>
   </g>
  </g>
  <text x="211.55452" y="45.454121" font-family="sans-serif" font-size="40px" letter-spacing="0px" word-spacing="0px" style="line-height:0.9" xml:space="preserve"><tspan x="211.55452" y="45.454121" fill="#e8e8e8" text-align="center">React Next</tspan><tspan x="211.55452" y="81.454124" fill="#e8e8e9" text-align="center">Boilerplate</tspan></text>
 </g>
</svg>
