<?xml version="1.0" encoding="UTF-8"?>
<svg width="700" height="200" version="1.1" viewBox="0 0 350 100" xmlns="http://www.w3.org/2000/svg">
 <g font-weight="bold" letter-spacing="0px" text-anchor="middle" word-spacing="0px">
  <g transform="matrix(1.5881 0 0 1.5881 -.32368 5.7096)" font-family="Ubuntu">
   <g fill="#e0138c" aria-label="{}">
    <path d="m25.677 51.098q-4.3859 0-6.7319-0.71399t-3.2639-2.244-0.91798-3.9779v-7.8538q0-2.397-1.632-3.4169t-4.7429-1.02v-5.9669q3.1109 0 4.7429-1.02t1.632-3.4169v-7.9048q0-2.448 0.91798-3.9779t3.2639-2.244 6.7319-0.71399v5.6099q-1.989 0.051-3.1619 0.71399-1.173 0.66299-1.173 2.8049v7.4459q0 4.6409-5.8139 5.5079v0.30599q5.8139 0.86698 5.8139 5.5079v7.4459q0 2.142 1.173 2.8049t3.1619 0.71399z"/>
    <path d="m29.757 51.098v-5.6099q1.989-0.051 3.1619-0.71399 1.173-0.66299 1.173-2.8049v-7.4459q0-4.6409 5.8139-5.5079v-0.30599q-5.8139-0.86698-5.8139-5.5079v-7.4459q0-2.142-1.173-2.8049t-3.1619-0.71399v-5.6099q4.3859 0 6.7319 0.71399t3.2639 2.244q0.91798 1.53 0.91798 3.9779v7.9048q0 2.397 1.632 3.4169t4.7429 1.02v5.9669q-3.1109 0-4.7429 1.02t-1.632 3.4169v7.8538q0 2.448-0.91798 3.9779-0.91798 1.53-3.2639 2.244t-6.7319 0.71399z"/>
   </g>
  </g>
  <text x="212.96008" y="45.453819" fill="#e0138c" font-family="sans-serif" font-size="40px" letter-spacing="0px" word-spacing="0px" style="line-height:0.9" xml:space="preserve"><tspan x="212.96008" y="45.453819" text-align="center">React Next</tspan><tspan x="212.96008" y="81.453819" text-align="center">Boilerplate</tspan></text>
 </g>
</svg>
